<svg width="35" height="35" viewBox="0 0 35 35" fill="none" xmlns="http://www.w3.org/2000/svg">
<rect x="0.4" y="0.4" width="34.2" height="34.2" rx="5.6" fill="#F4F4F4"/>
<rect x="0.4" y="0.4" width="34.2" height="34.2" rx="5.6" stroke="#D8E0F0" stroke-width="0.8"/>
<path d="M17.5 10.5C11.4688 10.5 6.36489 16.8 6.14923 17.073C6.05247 17.1954 6 17.3455 6 17.5C6 17.6545 6.05247 17.8046 6.14923 17.927C6.36489 18.2 11.4688 24.5 17.5 24.5C23.5312 24.5 28.6351 18.2 28.8508 17.927C28.9475 17.8046 29 17.6545 29 17.5C29 17.3455 28.9475 17.1954 28.8508 17.073C28.6351 16.8 23.5312 10.5 17.5 10.5ZM17.5 23.1C13.0215 23.1 8.87371 18.9 7.65165 17.5C8.87371 16.1 13.0143 11.9 17.5 11.9C21.9857 11.9 26.1263 16.1 27.3484 17.5C26.1263 18.9 21.9857 23.1 17.5 23.1Z" fill="#3A3F51"/>
<path d="M21.0943 16.8C21.2129 16.7999 21.3297 16.7712 21.4342 16.7165C21.5387 16.6618 21.6277 16.5827 21.6932 16.4864C21.7586 16.39 21.7986 16.2794 21.8095 16.1643C21.8204 16.0493 21.8019 15.9334 21.7556 15.827C21.3602 15.0602 20.7517 14.4169 19.9994 13.9702C19.2471 13.5235 18.3811 13.2913 17.5 13.3C16.3561 13.3 15.259 13.7425 14.4501 14.5302C13.6413 15.3178 13.1869 16.3861 13.1869 17.5C13.1869 18.6139 13.6413 19.6822 14.4501 20.4698C15.259 21.2575 16.3561 21.7 17.5 21.7C18.3811 21.7087 19.2471 21.4765 19.9994 21.0298C20.7517 20.5831 21.3602 19.9398 21.7556 19.173C21.8019 19.0666 21.8204 18.9507 21.8095 18.8357C21.7986 18.7206 21.7586 18.61 21.6932 18.5136C21.6277 18.4173 21.5387 18.3382 21.4342 18.2835C21.3297 18.2288 21.2129 18.2001 21.0943 18.2C20.9974 18.2099 20.8994 18.1986 20.8076 18.1669C20.7158 18.1352 20.6324 18.084 20.5635 18.0169C20.4946 17.9498 20.4419 17.8686 20.4094 17.7792C20.3769 17.6897 20.3653 17.5944 20.3754 17.5C20.3653 17.4056 20.3769 17.3103 20.4094 17.2208C20.4419 17.1314 20.4946 17.0502 20.5635 16.9831C20.6324 16.916 20.7158 16.8648 20.8076 16.8331C20.8994 16.8014 20.9974 16.7901 21.0943 16.8Z" fill="#3A3F51"/>
</svg>
