<svg width="46" height="46" viewBox="0 0 46 46" fill="none" xmlns="http://www.w3.org/2000/svg">
<rect width="46" height="46" rx="6" fill="#1777CF"/>
<path d="M33.3779 16.0836H31.2376H29.198H27.8398V14.6336C27.8398 13.7347 27.1152 13 26.2178 13H19.7774C18.8848 13 18.1554 13.7298 18.1554 14.6336V16.0836H16.7972H14.7576H12.6221C11.7247 16.0836 11 16.8134 11 17.7124V31.3664C11 32.2653 11.7247 33 12.6221 33H14.7624H16.802H29.198H31.2376H33.3779C34.2705 33 35 32.2702 35 31.3664V17.7124C34.9952 16.8134 34.2705 16.0836 33.3779 16.0836ZM18.6401 17.0503H27.3599H28.7181V32.0333H17.2771V17.0503H18.6401ZM19.12 14.6336C19.12 14.2663 19.4175 13.9667 19.7822 13.9667H26.2226C26.5873 13.9667 26.8848 14.2663 26.8848 14.6336V16.0836H19.12V14.6336ZM11.9598 31.3664V17.7124C11.9598 17.3451 12.2573 17.0454 12.6221 17.0454L16.7972 17.0503V24.798V32.0333L12.6221 32.0285C12.2573 32.0333 11.9598 31.7337 11.9598 31.3664ZM16.7972 32.0333V24.798V17.0503H16.3173V32.0333H16.7972ZM29.6779 32.0333V17.0503H29.198V32.0333H29.6779ZM34.0354 31.3664C34.0354 31.7337 33.7379 32.0333 33.3731 32.0333H29.198V17.0503H33.3731C33.7379 17.0503 34.0354 17.3499 34.0354 17.7173V31.3664Z" fill="#FCFCFC"/>
<path d="M16.7972 17.0503L12.6221 17.0454C12.2573 17.0454 11.9598 17.3451 11.9598 17.7124V31.3664C11.9598 31.7337 12.2573 32.0334 12.6221 32.0285L16.7972 32.0333M16.7972 17.0503H16.3173V32.0333H16.7972M16.7972 17.0503V24.798V32.0333M29.198 17.0503H29.6779V32.0333H29.198M29.198 17.0503V32.0333M29.198 17.0503H33.3731C33.7379 17.0503 34.0354 17.3499 34.0354 17.7173V31.3664C34.0354 31.7337 33.7379 32.0333 33.3731 32.0333H29.198M33.3779 16.0836H31.2376H29.198H27.8398V14.6336C27.8398 13.7347 27.1152 13 26.2178 13H19.7774C18.8848 13 18.1554 13.7298 18.1554 14.6336V16.0836H16.7972H14.7576H12.6221C11.7247 16.0836 11 16.8134 11 17.7124V31.3664C11 32.2653 11.7247 33 12.6221 33H14.7624H16.802H29.198H31.2376H33.3779C34.2705 33 35 32.2702 35 31.3664V17.7124C34.9952 16.8134 34.2705 16.0836 33.3779 16.0836ZM18.6401 17.0503H27.3599H28.7181V32.0333H17.2771V17.0503H18.6401ZM19.12 14.6336C19.12 14.2663 19.4175 13.9667 19.7822 13.9667H26.2226C26.5873 13.9667 26.8848 14.2663 26.8848 14.6336V16.0836H19.12V14.6336Z" stroke="#FCFCFC" stroke-width="0.3"/>
</svg>
