<svg width="46" height="46" viewBox="0 0 46 46" fill="none" xmlns="http://www.w3.org/2000/svg">
<rect width="46" height="46" rx="6" fill="#1777CF"/>
<path d="M26.6688 17.3797C26.6754 17.3727 26.6819 17.3657 26.6884 17.3587C27.0836 16.9336 26.7806 16.2422 26.1999 16.2422H19.8001C19.2194 16.2422 18.9164 16.9336 19.3116 17.3587L19.3311 17.3797C19.9254 18.015 22.162 19.9023 22.1908 19.927C22.6565 20.3264 23.3435 20.3264 23.8091 19.927C23.838 19.9023 26.0746 18.015 26.6688 17.3797Z" fill="#FCFCFC"/>
<path d="M26.0518 22.4103C26.238 22.2483 26.4511 22.0693 26.6765 21.8797C28.3396 20.4817 30.6172 18.5671 30.6172 16.5547V15.3438C30.6172 14.0514 29.5658 13 28.2734 13H17.7266C16.4342 13 15.3828 14.0514 15.3828 15.3438V16.5547C15.3828 18.5671 17.6604 20.4817 19.3235 21.8797C19.5489 22.0693 19.7619 22.2483 19.9481 22.4102C20.1251 22.5642 20.2266 22.7791 20.2266 23C20.2266 23.2209 20.1251 23.4358 19.9482 23.5897C19.762 23.7517 19.5489 23.9307 19.3235 24.1203C17.6604 25.5183 15.3828 27.4329 15.3828 29.4453V30.6562C15.3828 31.9486 16.4342 33 17.7266 33H28.2734C29.5658 33 30.6172 31.9486 30.6172 30.6562C30.6172 30.2248 30.2674 29.875 29.8359 29.875C29.4045 29.875 29.0547 30.2248 29.0547 30.6562C29.0547 31.087 28.7042 31.4375 28.2734 31.4375H17.7266C17.2958 31.4375 16.9453 31.087 16.9453 30.6562V29.4453C16.9453 28.1606 19.0634 26.3802 20.3289 25.3163C20.5596 25.1224 20.7775 24.9392 20.9737 24.7685C21.4919 24.3177 21.7891 23.6731 21.7891 23C21.7891 22.3269 21.4919 21.6823 20.9737 21.2314C20.7775 21.0607 20.5596 20.8776 20.3289 20.6836C19.0634 19.6198 16.9453 17.8394 16.9453 16.5547V15.3438C16.9453 14.913 17.2958 14.5625 17.7266 14.5625H28.2734C28.7042 14.5625 29.0547 14.913 29.0547 15.3438V16.5547C29.0547 17.8394 26.9366 19.6198 25.6711 20.6837C25.4404 20.8776 25.2225 21.0608 25.0263 21.2315C24.5081 21.6823 24.2109 22.327 24.2109 23C24.2109 23.6732 24.5081 24.3177 25.0263 24.7685C25.2308 24.9464 25.4586 25.1371 25.6999 25.3391C26.4599 25.9752 27.3214 26.6963 28.0013 27.4635C28.2875 27.7864 28.7812 27.8161 29.1041 27.53C29.427 27.2438 29.4568 26.75 29.1706 26.4271C28.4135 25.5729 27.465 24.7789 26.7028 24.1409C26.4674 23.9439 26.2451 23.7579 26.0518 23.5897C25.8749 23.4358 25.7734 23.2209 25.7734 23C25.7734 22.7791 25.8749 22.5642 26.0518 22.4103Z" fill="#FCFCFC"/>
</svg>
