<svg width="35" height="35" viewBox="0 0 35 35" fill="none" xmlns="http://www.w3.org/2000/svg">
<path d="M17.5 0.25C22.0735 0.25494 26.4584 2.07368 29.6924 5.30762C32.9263 8.54155 34.7451 12.9265 34.75 17.5L34.7383 18.1387C34.6202 21.3267 33.6198 24.4245 31.8428 27.084C29.9474 29.9205 27.2533 32.1309 24.1016 33.4365C20.9496 34.7421 17.4809 35.0845 14.1348 34.4189C10.7886 33.7533 7.71519 32.1097 5.30273 29.6973C2.89028 27.2848 1.24665 24.2114 0.581055 20.8652C-0.0845012 17.5191 0.257884 14.0504 1.56348 10.8984C2.86906 7.74669 5.07953 5.0526 7.91602 3.15723C10.5755 1.38023 13.6733 0.379803 16.8613 0.261719L17.5 0.25ZM23.3994 3.25684C20.5825 2.09007 17.4826 1.78505 14.4922 2.37988C11.5017 2.97477 8.75464 4.44263 6.59863 6.59863C4.44263 8.75464 2.97477 11.5017 2.37988 14.4922C1.78505 17.4826 2.09007 20.5825 3.25684 23.3994C4.42364 26.2163 6.39947 28.6244 8.93457 30.3184C11.4698 32.0124 14.4509 32.917 17.5 32.917C21.5871 32.912 25.5055 31.2855 28.3955 28.3955C31.2855 25.5055 32.912 21.5871 32.917 17.5L32.9062 16.9287C32.8006 14.0797 31.9064 11.3112 30.3184 8.93457C28.6244 6.39947 26.2163 4.42364 23.3994 3.25684ZM22.167 18.917C23.0288 18.9171 23.8554 19.2588 24.4648 19.8682C25.0743 20.4777 25.417 21.305 25.417 22.167V24.5C25.417 25.3619 25.0742 26.1884 24.4648 26.7979C23.8554 27.4073 23.0288 27.7499 22.167 27.75C21.305 27.75 20.4777 27.4073 19.8682 26.7979C19.2589 26.1884 18.917 25.3618 18.917 24.5V22.167C18.917 21.305 19.2587 20.4777 19.8682 19.8682C20.4777 19.2587 21.305 18.917 22.167 18.917ZM22.167 20.75C21.7913 20.75 21.4307 20.8994 21.165 21.165C20.8994 21.4307 20.75 21.7913 20.75 22.167V24.5C20.75 24.8757 20.8994 25.2363 21.165 25.502C21.4307 25.7675 21.7913 25.917 22.167 25.917C22.5424 25.9169 22.9024 25.7673 23.168 25.502C23.4336 25.2363 23.583 24.8757 23.583 24.5V22.167C23.583 21.7913 23.4336 21.4307 23.168 21.165C22.9024 20.8995 22.5425 20.7501 22.167 20.75ZM24.5 9.58203C24.6206 9.58203 24.7402 9.60523 24.8516 9.65137C24.9629 9.69751 25.0642 9.76534 25.1494 9.85059C25.2347 9.93583 25.3025 10.0371 25.3486 10.1484C25.3948 10.2598 25.418 10.3794 25.418 10.5C25.418 10.6206 25.3948 10.7402 25.3486 10.8516C25.3025 10.9629 25.2347 11.0642 25.1494 11.1494L11.1494 25.1494C11.0642 25.2347 10.9629 25.3025 10.8516 25.3486C10.7402 25.3948 10.6206 25.418 10.5 25.418C10.2565 25.418 10.0228 25.3216 9.85059 25.1494C9.76534 25.0642 9.69751 24.9629 9.65137 24.8516C9.60523 24.7402 9.58203 24.6206 9.58203 24.5C9.58203 24.3794 9.60523 24.2598 9.65137 24.1484C9.69751 24.0371 9.76534 23.9358 9.85059 23.8506L23.8506 9.85059C23.9358 9.76534 24.0371 9.69751 24.1484 9.65137C24.2598 9.60523 24.3794 9.58203 24.5 9.58203ZM12.833 7.25C13.695 7.25 14.5223 7.59266 15.1318 8.20215C15.7411 8.81161 16.083 9.6382 16.083 10.5V12.833C16.083 13.695 15.7413 14.5223 15.1318 15.1318C14.5223 15.7413 13.695 16.083 12.833 16.083C11.9713 16.0829 11.1446 15.7412 10.5352 15.1318C9.92566 14.5223 9.58301 13.695 9.58301 12.833V10.5C9.58301 9.63812 9.92577 8.81163 10.5352 8.20215C11.1446 7.59273 11.9712 7.25009 12.833 7.25ZM12.833 9.08301C12.4576 9.0831 12.0976 9.23265 11.832 9.49805C11.5664 9.76372 11.417 10.1243 11.417 10.5V12.833C11.417 13.2087 11.5664 13.5693 11.832 13.835C12.0976 14.1005 12.4575 14.2499 12.833 14.25C13.2087 14.25 13.5693 14.1006 13.835 13.835C14.1006 13.5693 14.25 13.2087 14.25 12.833V10.5C14.25 10.1243 14.1006 9.76372 13.835 9.49805C13.5693 9.23247 13.2087 9.08301 12.833 9.08301Z" fill="#3A3F51" stroke="#F4F4F4" stroke-width="0.5"/>
</svg>
