<svg width="35" height="35" viewBox="0 0 35 35" fill="none" xmlns="http://www.w3.org/2000/svg">
<rect x="0.25" y="0.25" width="34.5" height="34.5" rx="5.75" fill="#F4F4F4"/>
<rect x="0.25" y="0.25" width="34.5" height="34.5" rx="5.75" stroke="#D8E0F0" stroke-width="0.5"/>
<path d="M19.5 10.5C19.5 11.6046 18.6046 12.5 17.5 12.5C16.3954 12.5 15.5 11.6046 15.5 10.5C15.5 9.39543 16.3954 8.5 17.5 8.5C18.6046 8.5 19.5 9.39543 19.5 10.5Z" fill="#7D8592"/>
<path d="M19.5 17.5C19.5 18.6046 18.6046 19.5 17.5 19.5C16.3954 19.5 15.5 18.6046 15.5 17.5C15.5 16.3954 16.3954 15.5 17.5 15.5C18.6046 15.5 19.5 16.3954 19.5 17.5Z" fill="#7D8592"/>
<path d="M17.5 26.5C18.6046 26.5 19.5 25.6046 19.5 24.5C19.5 23.3954 18.6046 22.5 17.5 22.5C16.3954 22.5 15.5 23.3954 15.5 24.5C15.5 25.6046 16.3954 26.5 17.5 26.5Z" fill="#7D8592"/>
</svg>
